<svg width="90" height="35" viewBox="0 0 90 35" fill="none" xmlns="http://www.w3.org/2000/svg">
<path d="M70.6526 4.0279L71.3753 0.644531H83.7274C84.4501 0.644531 85.1071 0.788269 85.6985 1.07575C86.2898 1.36322 86.7716 1.77232 87.1439 2.30305C87.5162 2.83377 87.7681 3.47506 87.8995 4.22692C88.0528 4.95667 88.0309 5.77487 87.8338 6.68153C87.6586 7.49973 87.3301 8.2737 86.8482 9.00345C86.3883 9.7332 85.8189 10.3745 85.14 10.9273C84.4611 11.4802 83.7164 11.9224 82.9061 12.2541C82.1177 12.5637 81.3073 12.7185 80.4751 12.7185L81.1978 9.33515C82.1177 9.15824 82.8076 8.84865 83.2675 8.40638C83.7493 7.96411 84.0668 7.38916 84.2202 6.68153C84.3954 5.92967 84.3187 5.29943 83.9902 4.79082C83.6836 4.28221 83.0813 4.0279 82.1834 4.0279H70.6526ZM71.014 17.9594H85.14L84.4173 21.3428H66.7104L67.9916 15.3058C68.1669 14.4876 68.4844 13.7136 68.9443 12.9839C69.4042 12.2541 69.9627 11.6128 70.6197 11.06C71.2768 10.5072 71.9995 10.076 72.7879 9.76637C73.5764 9.43466 74.3867 9.26881 75.2189 9.26881L74.4962 12.6854C73.6202 12.8623 72.9412 13.1829 72.4594 13.6473C71.9995 14.0896 71.7038 14.6424 71.5724 15.3058L71.014 17.9594Z" fill="black"/>
<path d="M4.61548 0.871721V4.21798H11.7345V21.3429H15.2776V4.21798H22.495V0.871721H4.61548Z" fill="#00D1FF"/>
<path d="M38.0801 21.3429H41.9185L37.7849 13.2069C38.3754 13.0757 38.9331 12.8242 39.458 12.4524C39.9829 12.0587 40.4313 11.5994 40.8031 11.0745C41.1967 10.5277 41.5029 9.92629 41.7216 9.27017C41.9404 8.59217 42.0497 7.90323 42.0497 7.20336C42.0497 6.30665 41.8966 5.47556 41.5904 4.71007C41.3061 3.92272 40.9124 3.24472 40.4094 2.67607C39.9282 2.10743 39.3596 1.67001 38.7034 1.36382C38.0473 1.03575 37.3584 0.871721 36.6366 0.871721H24.039V21.3429H27.5492V4.21798H36.243C36.571 4.21798 36.8663 4.3164 37.1287 4.51323C37.4131 4.6882 37.6427 4.92878 37.8177 5.23497C38.0145 5.5193 38.1567 5.83643 38.2442 6.18636C38.3535 6.51443 38.4082 6.84249 38.4082 7.17055C38.4082 7.47675 38.3644 7.79388 38.277 8.12194C38.2113 8.45001 38.0911 8.7562 37.9161 9.04052C37.7411 9.30297 37.5224 9.52168 37.26 9.69665C36.9975 9.87162 36.6913 9.9591 36.3414 9.9591H32.3062L38.0801 21.3429Z" fill="#00D1FF"/>
<path d="M55.5665 23.2785L64.2274 6.15355V21.3429H67.8033V0.806107H62.8823L55.5665 15.5034L48.3162 0.806107H43.4281V21.3429H47.0696V6.28478L55.5665 23.2785Z" fill="#00D1FF"/>
<path d="M10.4244 33.9546H12.0624L11.0404 30.4826C11.3017 30.4266 11.5584 30.3193 11.8104 30.1606C12.0717 29.9926 12.3097 29.7966 12.5244 29.5726C12.7391 29.3393 12.9211 29.0826 13.0704 28.8026C13.2291 28.5133 13.3411 28.2193 13.4064 27.9206C13.4904 27.5379 13.5044 27.1833 13.4484 26.8566C13.3924 26.5206 13.2851 26.2313 13.1264 25.9886C12.9677 25.7459 12.7624 25.5593 12.5104 25.4286C12.2584 25.2886 11.9784 25.2186 11.6704 25.2186H6.29439L4.43239 33.9546H5.93039L7.48439 26.6466H11.1944C11.3344 26.6466 11.4511 26.6886 11.5444 26.7726C11.6471 26.8473 11.7264 26.9499 11.7824 27.0806C11.8384 27.2019 11.8711 27.3373 11.8804 27.4866C11.8897 27.6266 11.8804 27.7666 11.8524 27.9066C11.8244 28.0373 11.7777 28.1726 11.7124 28.3126C11.6471 28.4526 11.5677 28.5833 11.4744 28.7046C11.3811 28.8166 11.2691 28.9099 11.1384 28.9846C11.0077 29.0593 10.8677 29.0966 10.7184 29.0966H8.99639L10.4244 33.9546ZM13.6166 33.9546H15.1146L16.9766 25.2186H15.4786L13.6166 33.9546ZM17.5611 29.5866C17.4304 30.1933 17.4258 30.7673 17.5471 31.3086C17.6684 31.8406 17.8831 32.3073 18.1911 32.7086C18.5084 33.1006 18.9098 33.4133 19.3951 33.6466C19.8898 33.8799 20.4451 33.9966 21.0611 33.9966C21.8824 33.9966 22.6711 33.7913 23.4271 33.3806C24.1831 32.9699 24.8551 32.4146 25.4431 31.7146L24.5891 30.6226C24.3744 30.9026 24.1364 31.1593 23.8751 31.3926C23.6138 31.6166 23.3431 31.8126 23.0631 31.9806C22.7831 32.1486 22.4984 32.2793 22.2091 32.3726C21.9291 32.4659 21.6538 32.5126 21.3831 32.5126C20.9818 32.5126 20.6178 32.4379 20.2911 32.2886C19.9644 32.1299 19.6938 31.9199 19.4791 31.6586C19.2738 31.3879 19.1291 31.0753 19.0451 30.7206C18.9611 30.3659 18.9611 29.9926 19.0451 29.6006C19.1291 29.2086 19.2878 28.8353 19.5211 28.4806C19.7544 28.1259 20.0344 27.8133 20.3611 27.5426C20.6878 27.2719 21.0471 27.0573 21.4391 26.8986C21.8311 26.7399 22.2324 26.6606 22.6431 26.6606C22.9418 26.6606 23.2218 26.7166 23.4831 26.8286C23.7444 26.9313 23.9778 27.0806 24.1831 27.2766C24.3978 27.4726 24.5798 27.7013 24.7291 27.9626C24.8784 28.2239 24.9904 28.5086 25.0651 28.8166L26.4511 28.0046C26.3484 27.5846 26.1898 27.2019 25.9751 26.8566C25.7698 26.5113 25.5131 26.2173 25.2051 25.9746C24.9064 25.7226 24.5658 25.5266 24.1831 25.3866C23.8004 25.2466 23.3851 25.1766 22.9371 25.1766C22.3211 25.1766 21.7191 25.2933 21.1311 25.5266C20.5431 25.7599 20.0064 26.0773 19.5211 26.4786C19.0358 26.8706 18.6204 27.3373 18.2751 27.8786C17.9298 28.4106 17.6918 28.9799 17.5611 29.5866ZM33.3242 33.9546H34.8502L36.7122 25.2186H35.1862L34.3602 29.0966H29.8942L29.5862 30.5246H34.0522L33.3242 33.9546ZM26.7722 33.9546H28.2702L30.1322 25.2186H28.6342L26.7722 33.9546ZM47.6939 33.9546H49.3319L48.3099 30.4826C48.5713 30.4266 48.8279 30.3193 49.0799 30.1606C49.3413 29.9926 49.5793 29.7966 49.7939 29.5726C50.0086 29.3393 50.1906 29.0826 50.3399 28.8026C50.4986 28.5133 50.6106 28.2193 50.6759 27.9206C50.7599 27.5379 50.7739 27.1833 50.7179 26.8566C50.6619 26.5206 50.5546 26.2313 50.3959 25.9886C50.2373 25.7459 50.0319 25.5593 49.7799 25.4286C49.5279 25.2886 49.2479 25.2186 48.9399 25.2186H43.5639L41.7019 33.9546H43.1999L44.7539 26.6466H48.4639C48.6039 26.6466 48.7206 26.6886 48.8139 26.7726C48.9166 26.8473 48.9959 26.9499 49.0519 27.0806C49.1079 27.2019 49.1406 27.3373 49.1499 27.4866C49.1593 27.6266 49.1499 27.7666 49.1219 27.9066C49.0939 28.0373 49.0473 28.1726 48.9819 28.3126C48.9166 28.4526 48.8373 28.5833 48.7439 28.7046C48.6506 28.8166 48.5386 28.9099 48.4079 28.9846C48.2773 29.0593 48.1373 29.0966 47.9879 29.0966H46.2659L47.6939 33.9546ZM49.9466 33.9546H51.6686L56.0926 27.7246L57.3946 32.5126H53.8806L52.5926 33.9546H59.5366L56.8066 24.3646L49.9466 33.9546ZM60.5045 29.5866C60.3738 30.1933 60.3691 30.7673 60.4905 31.3086C60.6118 31.8406 60.8265 32.3073 61.1345 32.7086C61.4518 33.1006 61.8531 33.4133 62.3385 33.6466C62.8331 33.8799 63.3885 33.9966 64.0045 33.9966C64.8258 33.9966 65.6145 33.7913 66.3705 33.3806C67.1265 32.9699 67.7985 32.4146 68.3865 31.7146L67.5325 30.6226C67.3178 30.9026 67.0798 31.1593 66.8185 31.3926C66.5571 31.6166 66.2865 31.8126 66.0065 31.9806C65.7265 32.1486 65.4418 32.2793 65.1525 32.3726C64.8725 32.4659 64.5971 32.5126 64.3265 32.5126C63.9251 32.5126 63.5611 32.4379 63.2345 32.2886C62.9078 32.1299 62.6371 31.9199 62.4225 31.6586C62.2171 31.3879 62.0725 31.0753 61.9885 30.7206C61.9045 30.3659 61.9045 29.9926 61.9885 29.6006C62.0725 29.2086 62.2311 28.8353 62.4645 28.4806C62.6978 28.1259 62.9778 27.8133 63.3045 27.5426C63.6311 27.2719 63.9905 27.0573 64.3825 26.8986C64.7745 26.7399 65.1758 26.6606 65.5865 26.6606C65.8851 26.6606 66.1651 26.7166 66.4265 26.8286C66.6878 26.9313 66.9211 27.0806 67.1265 27.2766C67.3411 27.4726 67.5231 27.7013 67.6725 27.9626C67.8218 28.2239 67.9338 28.5086 68.0085 28.8166L69.3945 28.0046C69.2918 27.5846 69.1331 27.2019 68.9185 26.8566C68.7131 26.5113 68.4565 26.2173 68.1485 25.9746C67.8498 25.7226 67.5091 25.5266 67.1265 25.3866C66.7438 25.2466 66.3285 25.1766 65.8805 25.1766C65.2645 25.1766 64.6625 25.2933 64.0745 25.5266C63.4865 25.7599 62.9498 26.0773 62.4645 26.4786C61.9791 26.8706 61.5638 27.3373 61.2185 27.8786C60.8731 28.4106 60.6351 28.9799 60.5045 29.5866ZM77.2896 29.0966L76.9816 30.5246H72.5576L72.8656 29.0966H77.2896ZM69.6876 33.9546L71.5496 25.2186H78.1996L77.8916 26.6466H72.7396L71.4936 32.5266H76.6456L76.3376 33.9546H69.6876ZM84.0748 33.9546H85.7128L84.6908 30.4826C84.9521 30.4266 85.2088 30.3193 85.4608 30.1606C85.7221 29.9926 85.9601 29.7966 86.1748 29.5726C86.3894 29.3393 86.5714 29.0826 86.7208 28.8026C86.8794 28.5133 86.9914 28.2193 87.0568 27.9206C87.1408 27.5379 87.1548 27.1833 87.0988 26.8566C87.0428 26.5206 86.9354 26.2313 86.7768 25.9886C86.6181 25.7459 86.4128 25.5593 86.1608 25.4286C85.9088 25.2886 85.6288 25.2186 85.3208 25.2186H79.9448L78.0828 33.9546H79.5808L81.1348 26.6466H84.8448C84.9848 26.6466 85.1014 26.6886 85.1948 26.7726C85.2974 26.8473 85.3768 26.9499 85.4328 27.0806C85.4888 27.2019 85.5214 27.3373 85.5308 27.4866C85.5401 27.6266 85.5308 27.7666 85.5028 27.9066C85.4748 28.0373 85.4281 28.1726 85.3628 28.3126C85.2974 28.4526 85.2181 28.5833 85.1248 28.7046C85.0314 28.8166 84.9194 28.9099 84.7888 28.9846C84.6581 29.0593 84.5181 29.0966 84.3688 29.0966H82.6468L84.0748 33.9546Z" fill="black"/>
</svg>
